<svg xmlns="http://www.w3.org/2000/svg" width="20.858" height="14.44" viewBox="0 0 20.858 14.44"><g transform="translate(-3.375 -7.875)"><path d="M24.063,10.345l-5.4,5.5a.1.1,0,0,0,0,.14L22.443,20a.651.651,0,0,1,0,.923.654.654,0,0,1-.923,0l-3.76-4.006a.1.1,0,0,0-.145,0l-.918.933a4.037,4.037,0,0,1-2.878,1.213,4.118,4.118,0,0,1-2.938-1.248l-.882-.9a.1.1,0,0,0-.145,0l-3.76,4.006a.654.654,0,0,1-.923,0,.651.651,0,0,1,0-.923L8.946,15.98a.107.107,0,0,0,0-.14l-5.4-5.5a.1.1,0,0,0-.17.07v11a1.609,1.609,0,0,0,1.6,1.6H22.629a1.609,1.609,0,0,0,1.6-1.6v-11A.1.1,0,0,0,24.063,10.345Z" transform="translate(0 -0.7)" fill="#b60008"/><path d="M14.048,17.056a2.726,2.726,0,0,0,1.96-.822l7.867-8.007a1.576,1.576,0,0,0-.993-.351H5.219a1.565,1.565,0,0,0-.993.351l7.867,8.007A2.726,2.726,0,0,0,14.048,17.056Z" transform="translate(-0.244)" fill="#b60008"/></g></svg>